<svg xmlns="http://www.w3.org/2000/svg" width="18" height="15" viewBox="0 0 18 15">
  <metadata><?xpacket begin="﻿" id="W5M0MpCehiHzreSzNTczkc9d"?>
<x:xmpmeta xmlns:x="adobe:ns:meta/" x:xmptk="Adobe XMP Core 5.6-c142 79.160924, 2017/07/13-01:06:39        ">
   <rdf:RDF xmlns:rdf="http://www.w3.org/1999/02/22-rdf-syntax-ns#">
      <rdf:Description rdf:about=""/>
   </rdf:RDF>
</x:xmpmeta>
                                                                                                    
                                                                                                    
                                                                                                    
                                                                                                    
                                                                                                    
                                                                                                    
                                                                                                    
                                                                                                    
                                                                                                    
                                                                                                    
                                                                                                    
                                                                                                    
                                                                                                    
                                                                                                    
                                                                                                    
                                                                                                    
                                                                                                    
                                                                                                    
                                                                                                    
                                                                                                    
                           
<?xpacket end="w"?></metadata>
<defs>
    <style>
      .cls-1 {
        fill: #fff;
        fill-rule: evenodd;
      }
    </style>
  </defs>
  <path id="Forma_1_copy" data-name="Forma 1 copy" class="cls-1" d="M9,1.449A1.774,1.774,0,0,0,10.7.272a6.823,6.823,0,0,1-1.7.2A6.822,6.822,0,0,1,7.3.272,1.774,1.774,0,0,0,9,1.449Zm8.978,0.862a0.4,0.4,0,0,0-.215-0.226L14.331,0.567A17.067,17.067,0,0,0,12.107.007,0.394,0.394,0,0,0,12.028,0a0.4,0.4,0,0,0-.394.3A2.679,2.679,0,0,1,9,2.324,2.679,2.679,0,0,1,6.366.3,0.4,0.4,0,0,0,5.972,0a0.393,0.393,0,0,0-.079.008A17.128,17.128,0,0,0,3.667.567L0.237,2.085a0.392,0.392,0,0,0-.214.226,0.368,0.368,0,0,0,.022.3l1.49,2.817a0.407,0.407,0,0,0,.362.214,0.425,0.425,0,0,0,.117-0.016l1.655-.47V14.61a0.4,0.4,0,0,0,.408.39h9.85a0.4,0.4,0,0,0,.406-0.39V5.159l1.656,0.47a0.424,0.424,0,0,0,.117.016,0.409,0.409,0,0,0,.362-0.214l1.49-2.817A0.376,0.376,0,0,0,17.978,2.311Z"/>
</svg>
